# xmcd
#
# Track frame offsets:
#	150
#	18597
#	36877
#	52160
#	69590
#	86910
#	101432
#	120442
#	139530
#	157972
#	176295
#	191570
#	208967
#	226292
#	240830
#	259830
#	290342
#
# Disc length: 3883 seconds
#
# Revision: 1
# Processed by: cddbd v1.5.2PL0 Copyright (c) Steve Scherf et al.
# Submitted via: audiograbber 1.83.01
#
DISCID=e80f2911
DTITLE=Sound Choice - SC3269
DYEAR=1900
DGENRE=KARAOKE
TTITLE0=Collin Raye - Ain't Nobody Gonna Take That From Me
TTITLE1=Lonestar - Unusually Unusual
TTITLE2=Reba MsEntire - I'm A Survivor
TTITLE3=Trace Adkins - I'm Tryin'
TTITLE4=Gary Allan - Man Of Me
TTITLE5=Terri Clark - Getting There
TTITLE6=Marshall Dylon - She Ain't Gonna Cry
TTITLE7=3 Of Hearts - Arizona Rain (Radio Version)
TTITLE8=Collin Raye - Ain't Nobody Gonna Take That From Me (Vocal Version)
TTITLE9=Lonestar - Unusually Unusual (Vocal Version)
TTITLE10=Reba McEntire - I'm A Survivor (Vocal Version)
TTITLE11=Trace Adkins - I'm Tryin' (Vocal Version)
TTITLE12=Gary Allan - Man Of Me (Vocal Version)
TTITLE13=Terri Clark - Getting There (Vocal Version)
TTITLE14=Marshall Dyllon - She Ain't Gonna Cry (Vocal Version)
TTITLE15=3 Of Hearts - Arizona Rain (Radio Version) (Vocal Version)
TTITLE16=Data Track - Data Track
EXTD=
EXTT0=
EXTT1=
EXTT2=
EXTT3=
EXTT4=
EXTT5=
EXTT6=
EXTT7=
EXTT8=
EXTT9=
EXTT10=
EXTT11=
EXTT12=
EXTT13=
EXTT14=
EXTT15=
EXTT16=
PLAYORDER=
